<svg width="1200" height="620" viewBox="0 0 1200 620" fill="none" xmlns="http://www.w3.org/2000/svg">
  <defs>
    <linearGradient id="g" x1="90" y1="80" x2="1112" y2="550" gradientUnits="userSpaceOnUse">
      <stop stop-color="#0F2B42"/>
      <stop offset="1" stop-color="#081B2A"/>
    </linearGradient>
    <linearGradient id="line" x1="170" y1="302" x2="1034" y2="302" gradientUnits="userSpaceOnUse">
      <stop stop-color="#23B2FF"/>
      <stop offset="1" stop-color="#FF9F5A"/>
    </linearGradient>
  </defs>
  <rect width="1200" height="620" rx="28" fill="url(#g)"/>
  <rect x="82" y="90" width="268" height="122" rx="16" fill="#13354F"/>
  <rect x="382" y="90" width="268" height="122" rx="16" fill="#13354F"/>
  <rect x="682" y="90" width="268" height="122" rx="16" fill="#13354F"/>
  <rect x="950" y="90" width="168" height="122" rx="16" fill="#13354F"/>
  <rect x="202" y="250" width="798" height="146" rx="22" fill="#112F48"/>
  <rect x="390" y="430" width="420" height="110" rx="18" fill="#102A40"/>
  <path d="M216 212V250" stroke="url(#line)" stroke-width="6" stroke-linecap="round"/>
  <path d="M516 212V250" stroke="url(#line)" stroke-width="6" stroke-linecap="round"/>
  <path d="M816 212V250" stroke="url(#line)" stroke-width="6" stroke-linecap="round"/>
  <path d="M1034 212V250" stroke="url(#line)" stroke-width="6" stroke-linecap="round"/>
  <path d="M600 396V430" stroke="url(#line)" stroke-width="6" stroke-linecap="round"/>
  <text x="126" y="163" fill="#D8ECFA" font-family="Manrope, Segoe UI, Arial" font-size="22" font-weight="700">Match History</text>
  <text x="430" y="163" fill="#D8ECFA" font-family="Manrope, Segoe UI, Arial" font-size="22" font-weight="700">SQL Features</text>
  <text x="718" y="163" fill="#D8ECFA" font-family="Manrope, Segoe UI, Arial" font-size="22" font-weight="700">Model Training</text>
  <text x="980" y="163" fill="#D8ECFA" font-family="Manrope, Segoe UI, Arial" font-size="22" font-weight="700">Metrics</text>
  <text x="286" y="330" fill="#BADBED" font-family="Manrope, Segoe UI, Arial" font-size="26" font-weight="700">Python Scikit-learn Pipeline + Experiment Tracking</text>
  <text x="476" y="495" fill="#BADBED" font-family="Manrope, Segoe UI, Arial" font-size="24" font-weight="700">Outcome Predictions</text>
  <text x="80" y="52" fill="#CFE6F7" font-family="Sora, Segoe UI, Arial" font-size="30" font-weight="700">EPL Predictor Architecture</text>
</svg>
