<svg width="1200" height="620" viewBox="0 0 1200 620" fill="none" xmlns="http://www.w3.org/2000/svg">
  <defs>
    <linearGradient id="g" x1="92" y1="82" x2="1100" y2="550" gradientUnits="userSpaceOnUse">
      <stop stop-color="#0F2B43"/>
      <stop offset="1" stop-color="#081B2B"/>
    </linearGradient>
    <linearGradient id="line" x1="164" y1="290" x2="1036" y2="290" gradientUnits="userSpaceOnUse">
      <stop stop-color="#1EC8A5"/>
      <stop offset="1" stop-color="#23B2FF"/>
    </linearGradient>
  </defs>
  <rect width="1200" height="620" rx="28" fill="url(#g)"/>
  <rect x="78" y="90" width="250" height="120" rx="16" fill="#13354F"/>
  <rect x="370" y="90" width="250" height="120" rx="16" fill="#13354F"/>
  <rect x="662" y="90" width="250" height="120" rx="16" fill="#13354F"/>
  <rect x="954" y="90" width="168" height="120" rx="16" fill="#13354F"/>
  <rect x="198" y="252" width="806" height="142" rx="22" fill="#112F48"/>
  <rect x="396" y="430" width="410" height="110" rx="18" fill="#102A40"/>
  <path d="M204 210V252" stroke="url(#line)" stroke-width="6" stroke-linecap="round"/>
  <path d="M496 210V252" stroke="url(#line)" stroke-width="6" stroke-linecap="round"/>
  <path d="M788 210V252" stroke="url(#line)" stroke-width="6" stroke-linecap="round"/>
  <path d="M1038 210V252" stroke="url(#line)" stroke-width="6" stroke-linecap="round"/>
  <path d="M600 394V430" stroke="url(#line)" stroke-width="6" stroke-linecap="round"/>
  <text x="132" y="160" fill="#D8ECFA" font-family="Manrope, Segoe UI, Arial" font-size="22" font-weight="700">AER CSV Data</text>
  <text x="432" y="160" fill="#D8ECFA" font-family="Manrope, Segoe UI, Arial" font-size="22" font-weight="700">Validation Layer</text>
  <text x="706" y="160" fill="#D8ECFA" font-family="Manrope, Segoe UI, Arial" font-size="22" font-weight="700">Transform + Load</text>
  <text x="988" y="160" fill="#D8ECFA" font-family="Manrope, Segoe UI, Arial" font-size="22" font-weight="700">Audit Logs</text>
  <text x="312" y="326" fill="#BADBED" font-family="Manrope, Segoe UI, Arial" font-size="26" font-weight="700">Apache Airflow Scheduled Monthly DAG + PostgreSQL Warehouse</text>
  <text x="498" y="495" fill="#BADBED" font-family="Manrope, Segoe UI, Arial" font-size="24" font-weight="700">Power BI Analytics Layer</text>
  <text x="78" y="52" fill="#CFE6F7" font-family="Sora, Segoe UI, Arial" font-size="30" font-weight="700">Alberta Pipeline Architecture</text>
</svg>
