<svg width="1200" height="620" viewBox="0 0 1200 620" fill="none" xmlns="http://www.w3.org/2000/svg">
  <defs>
    <linearGradient id="g" x1="90" y1="78" x2="1110" y2="548" gradientUnits="userSpaceOnUse">
      <stop stop-color="#0E2A40"/>
      <stop offset="1" stop-color="#081A29"/>
    </linearGradient>
    <linearGradient id="line" x1="178" y1="298" x2="1028" y2="298" gradientUnits="userSpaceOnUse">
      <stop stop-color="#FF9F5A"/>
      <stop offset="1" stop-color="#1EC8A5"/>
    </linearGradient>
  </defs>
  <rect width="1200" height="620" rx="28" fill="url(#g)"/>
  <rect x="84" y="90" width="276" height="124" rx="16" fill="#13354F"/>
  <rect x="392" y="90" width="416" height="124" rx="16" fill="#13354F"/>
  <rect x="840" y="90" width="276" height="124" rx="16" fill="#13354F"/>
  <rect x="234" y="250" width="732" height="140" rx="22" fill="#112F48"/>
  <rect x="378" y="430" width="444" height="110" rx="18" fill="#102A40"/>
  <path d="M222 214V250" stroke="url(#line)" stroke-width="6" stroke-linecap="round"/>
  <path d="M600 214V250" stroke="url(#line)" stroke-width="6" stroke-linecap="round"/>
  <path d="M978 214V250" stroke="url(#line)" stroke-width="6" stroke-linecap="round"/>
  <path d="M600 390V430" stroke="url(#line)" stroke-width="6" stroke-linecap="round"/>
  <text x="118" y="164" fill="#D8ECFA" font-family="Manrope, Segoe UI, Arial" font-size="22" font-weight="700">User Inputs</text>
  <text x="502" y="164" fill="#D8ECFA" font-family="Manrope, Segoe UI, Arial" font-size="22" font-weight="700">Node.js Calculation API</text>
  <text x="888" y="164" fill="#D8ECFA" font-family="Manrope, Segoe UI, Arial" font-size="22" font-weight="700">Meal Logging</text>
  <text x="336" y="326" fill="#BADBED" font-family="Manrope, Segoe UI, Arial" font-size="26" font-weight="700">PostgreSQL User, Macro, and History Data Model</text>
  <text x="486" y="495" fill="#BADBED" font-family="Manrope, Segoe UI, Arial" font-size="24" font-weight="700">Responsive React UI</text>
  <text x="82" y="52" fill="#CFE6F7" font-family="Sora, Segoe UI, Arial" font-size="30" font-weight="700">Macro Finder Architecture</text>
</svg>
