<svg width="960" height="600" viewBox="0 0 960 600" fill="none" xmlns="http://www.w3.org/2000/svg">
  <defs>
    <linearGradient id="g1" x1="58" y1="38" x2="900" y2="574" gradientUnits="userSpaceOnUse">
      <stop stop-color="#10273C"/>
      <stop offset="1" stop-color="#081A29"/>
    </linearGradient>
    <linearGradient id="g2" x1="250" y1="254" x2="730" y2="254" gradientUnits="userSpaceOnUse">
      <stop stop-color="#1EC8A5"/>
      <stop offset="1" stop-color="#23B2FF"/>
    </linearGradient>
  </defs>
  <rect width="960" height="600" rx="28" fill="url(#g1)"/>
  <rect x="84" y="90" width="792" height="420" rx="24" fill="#0B1F31" stroke="#496E8A" stroke-opacity="0.5"/>
  <rect x="130" y="130" width="278" height="320" rx="16" fill="#102B42"/>
  <rect x="432" y="130" width="388" height="148" rx="16" fill="#102B42"/>
  <rect x="432" y="302" width="388" height="148" rx="16" fill="#0E273C"/>
  <rect x="162" y="164" width="170" height="12" rx="6" fill="#7FA6C3"/>
  <rect x="162" y="188" width="214" height="10" rx="5" fill="#5F86A6"/>
  <rect x="162" y="211" width="190" height="10" rx="5" fill="#5F86A6"/>
  <path d="M458 230H788" stroke="#3A5C79" stroke-width="2"/>
  <path d="M458 406H788" stroke="#3A5C79" stroke-width="2"/>
  <path d="M470 230L552 206L622 218L694 184L770 200" stroke="url(#g2)" stroke-width="6" stroke-linecap="round" stroke-linejoin="round"/>
  <circle cx="470" cy="230" r="6" fill="#1EC8A5"/>
  <circle cx="552" cy="206" r="6" fill="#38D4B6"/>
  <circle cx="622" cy="218" r="6" fill="#64D8CF"/>
  <circle cx="694" cy="184" r="6" fill="#7FD2DE"/>
  <circle cx="770" cy="200" r="6" fill="#9ACCF0"/>
  <rect x="470" y="346" width="210" height="14" rx="7" fill="#8AB8D2"/>
  <rect x="470" y="376" width="294" height="10" rx="5" fill="#6389A9"/>
  <rect x="470" y="398" width="244" height="10" rx="5" fill="#6389A9"/>
  <text x="130" y="68" fill="#C5DFF1" font-family="Sora, Segoe UI, Arial, sans-serif" font-size="34" font-weight="700">
    GapCheck
  </text>
</svg>
