<svg width="960" height="600" viewBox="0 0 960 600" fill="none" xmlns="http://www.w3.org/2000/svg">
  <defs>
    <linearGradient id="m1" x1="78" y1="56" x2="876" y2="552" gradientUnits="userSpaceOnUse">
      <stop stop-color="#10283E"/>
      <stop offset="1" stop-color="#081A2A"/>
    </linearGradient>
    <linearGradient id="m2" x1="200" y1="462" x2="780" y2="462" gradientUnits="userSpaceOnUse">
      <stop stop-color="#FF9F5A"/>
      <stop offset="1" stop-color="#1EC8A5"/>
    </linearGradient>
  </defs>
  <rect width="960" height="600" rx="28" fill="url(#m1)"/>
  <rect x="92" y="94" width="776" height="412" rx="24" fill="#0A1E2F" stroke="#496D8A" stroke-opacity="0.5"/>
  <rect x="132" y="132" width="300" height="336" rx="18" fill="#112D45"/>
  <rect x="458" y="132" width="370" height="154" rx="18" fill="#112D45"/>
  <rect x="458" y="310" width="370" height="158" rx="18" fill="#10293F"/>
  <circle cx="282" cy="238" r="74" fill="#0C2439" stroke="#638AAA" stroke-opacity="0.46"/>
  <path d="M282 238L327 218" stroke="#FF9F5A" stroke-width="8" stroke-linecap="round"/>
  <circle cx="282" cy="238" r="8" fill="#FF9F5A"/>
  <rect x="184" y="348" width="196" height="12" rx="6" fill="#7FA7C4"/>
  <rect x="184" y="372" width="168" height="10" rx="5" fill="#5C84A3"/>
  <rect x="496" y="174" width="236" height="12" rx="6" fill="#87B4CF"/>
  <rect x="496" y="199" width="280" height="10" rx="5" fill="#6087A6"/>
  <path d="M496 372H786" stroke="#3C617D" stroke-width="2"/>
  <path d="M514 372L566 344L620 353L680 324L736 338L778 312" stroke="url(#m2)" stroke-width="6" stroke-linecap="round" stroke-linejoin="round"/>
  <circle cx="514" cy="372" r="5.5" fill="#FF9F5A"/>
  <circle cx="778" cy="312" r="5.5" fill="#1EC8A5"/>
  <text x="132" y="66" fill="#CAE4F5" font-family="Sora, Segoe UI, Arial, sans-serif" font-size="33" font-weight="700">
    Macro Finder
  </text>
</svg>
