<svg width="1200" height="760" viewBox="0 0 1200 760" fill="none" xmlns="http://www.w3.org/2000/svg">
  <rect width="1200" height="760" rx="42" fill="#07111f"/>
  <circle cx="300" cy="180" r="280" fill="#1ec8a5" opacity="0.16"/>
  <circle cx="910" cy="540" r="360" fill="#55d2ff" opacity="0.16"/>
  <g opacity="0.14" stroke="#dce8ff"><path d="M90 128H1110"/><path d="M90 248H1110"/><path d="M90 368H1110"/><path d="M90 488H1110"/><path d="M90 608H1110"/><path d="M210 70V690"/><path d="M420 70V690"/><path d="M630 70V690"/><path d="M840 70V690"/><path d="M1050 70V690"/></g>
  <path d="M220 392 C360 250 550 510 690 350 C780 250 910 280 1015 178" stroke="#55d2ff" stroke-width="5" stroke-linecap="round" opacity="0.34"/>
  <path d="M220 392 C360 540 548 318 690 492 C792 615 940 560 1015 642" stroke="#7af35e" stroke-width="5" stroke-linecap="round" opacity="0.3"/>
  <rect x="120" y="130" width="330" height="470" rx="30" fill="#0d1a2d" stroke="#1ec8a5" stroke-opacity="0.34"/>
  <rect x="158" y="184" width="254" height="56" rx="16" fill="#14243b"/>
  <rect x="184" y="204" width="108" height="10" rx="5" fill="#dce8ff" opacity="0.64"/>
  <rect x="184" y="224" width="178" height="8" rx="4" fill="#8ea4c9" opacity="0.46"/>
  <g transform="translate(158 292)">
    <rect width="254" height="196" rx="24" fill="#101f34" stroke="#dce8ff" stroke-opacity="0.1"/>
    <path d="M34 144 L82 98 L122 124 L176 62 L220 38" stroke="#7af35e" stroke-width="8" stroke-linecap="round" stroke-linejoin="round"/>
    <circle cx="82" cy="98" r="9" fill="#55d2ff"/><circle cx="122" cy="124" r="9" fill="#55d2ff"/><circle cx="176" cy="62" r="9" fill="#55d2ff"/>
    <rect x="32" y="34" width="80" height="10" rx="5" fill="#dce8ff" opacity="0.5"/>
  </g>
  <g transform="translate(550 168)">
    <rect width="500" height="380" rx="34" fill="#0d1a2d" stroke="#55d2ff" stroke-opacity="0.32"/>
    <rect x="42" y="50" width="416" height="58" rx="16" fill="#14243b"/>
    <rect x="70" y="73" width="140" height="10" rx="5" fill="#dce8ff" opacity="0.58"/>
    <rect x="42" y="148" width="130" height="160" rx="22" fill="#122238" stroke="#7af35e" stroke-opacity="0.18"/>
    <rect x="190" y="148" width="130" height="160" rx="22" fill="#122238" stroke="#55d2ff" stroke-opacity="0.18"/>
    <rect x="338" y="148" width="120" height="160" rx="22" fill="#122238" stroke="#ffcf6b" stroke-opacity="0.18"/>
    <path d="M75 250H138" stroke="#7af35e" stroke-width="12" stroke-linecap="round"/><path d="M223 220H286" stroke="#55d2ff" stroke-width="12" stroke-linecap="round"/><path d="M370 236H426" stroke="#ffcf6b" stroke-width="12" stroke-linecap="round"/>
    <circle cx="107" cy="188" r="22" fill="#7af35e" opacity="0.16"/><circle cx="255" cy="188" r="22" fill="#55d2ff" opacity="0.16"/><circle cx="398" cy="188" r="22" fill="#ffcf6b" opacity="0.16"/>
  </g>
  <text x="120" y="92" fill="#f5f8ff" font-family="Inter, Arial" font-size="42" font-weight="800">GapCheck</text>
  <text x="120" y="684" fill="#b8c9e8" font-family="Inter, Arial" font-size="24">resume parsing + internship matching + transparent fit scoring</text>
</svg>
