<svg width="1200" height="760" viewBox="0 0 1200 760" fill="none" xmlns="http://www.w3.org/2000/svg">
  <rect width="1200" height="760" rx="42" fill="#07111f"/>
  <circle cx="260" cy="190" r="250" fill="#1ec8a5" opacity="0.18"/>
  <circle cx="920" cy="560" r="330" fill="#55d2ff" opacity="0.15"/>
  <path d="M0 620 C220 510 390 690 610 560 C810 442 940 500 1200 360" stroke="#7af35e" stroke-opacity="0.28" stroke-width="3"/>
  <g opacity="0.18" stroke="#dce8ff"><path d="M120 110H1080"/><path d="M120 210H1080"/><path d="M120 310H1080"/><path d="M120 410H1080"/><path d="M120 510H1080"/><path d="M120 610H1080"/><path d="M200 60V700"/><path d="M400 60V700"/><path d="M600 60V700"/><path d="M800 60V700"/><path d="M1000 60V700"/></g>
  <rect x="135" y="128" width="390" height="500" rx="30" fill="#0d1a2d" stroke="#7af35e" stroke-opacity="0.35"/>
  <rect x="170" y="178" width="320" height="78" rx="18" fill="#14243b" stroke="#dce8ff" stroke-opacity="0.12"/>
  <rect x="190" y="202" width="150" height="12" rx="6" fill="#dce8ff" opacity="0.7"/>
  <rect x="190" y="226" width="240" height="10" rx="5" fill="#8ea4c9" opacity="0.58"/>
  <rect x="170" y="288" width="145" height="145" rx="22" fill="#122238" stroke="#1ec8a5" stroke-opacity="0.26"/>
  <circle cx="242" cy="350" r="42" fill="#7af35e" opacity="0.18"/>
  <path d="M216 356 C232 324 267 322 281 354 C266 392 229 391 216 356Z" fill="#7af35e" opacity="0.72"/>
  <rect x="345" y="288" width="145" height="145" rx="22" fill="#122238" stroke="#55d2ff" stroke-opacity="0.26"/>
  <path d="M375 370H460" stroke="#55d2ff" stroke-width="10" stroke-linecap="round" opacity="0.78"/>
  <path d="M385 338H450" stroke="#dce8ff" stroke-width="9" stroke-linecap="round" opacity="0.56"/>
  <path d="M395 404H438" stroke="#dce8ff" stroke-width="9" stroke-linecap="round" opacity="0.42"/>
  <rect x="170" y="470" width="320" height="92" rx="18" fill="#101f34" stroke="#dce8ff" stroke-opacity="0.12"/>
  <path d="M195 525H465" stroke="#7af35e" stroke-width="12" stroke-linecap="round" opacity="0.72"/>
  <path d="M195 498H395" stroke="#dce8ff" stroke-width="10" stroke-linecap="round" opacity="0.42"/>
  <g transform="translate(650 155)">
    <rect width="390" height="420" rx="30" fill="#0d1a2d" stroke="#55d2ff" stroke-opacity="0.3"/>
    <rect x="36" y="42" width="318" height="80" rx="18" fill="#13243c"/>
    <rect x="62" y="70" width="120" height="12" rx="6" fill="#dce8ff" opacity="0.6"/>
    <rect x="62" y="94" width="220" height="10" rx="5" fill="#8ea4c9" opacity="0.52"/>
    <rect x="36" y="155" width="144" height="170" rx="22" fill="#122238" stroke="#7af35e" stroke-opacity="0.24"/>
    <rect x="210" y="155" width="144" height="170" rx="22" fill="#122238" stroke="#55d2ff" stroke-opacity="0.24"/>
    <path d="M62 268H154" stroke="#7af35e" stroke-width="12" stroke-linecap="round" opacity="0.65"/>
    <path d="M236 244H328" stroke="#55d2ff" stroke-width="12" stroke-linecap="round" opacity="0.65"/>
    <path d="M236 274H302" stroke="#dce8ff" stroke-width="10" stroke-linecap="round" opacity="0.38"/>
    <rect x="90" y="357" width="210" height="16" rx="8" fill="#dce8ff" opacity="0.16"/>
    <circle cx="118" cy="365" r="28" fill="#7af35e" opacity="0.16"/>
  </g>
  <text x="135" y="92" fill="#f5f8ff" font-family="Inter, Arial" font-size="42" font-weight="800">Macro Finder</text>
  <text x="135" y="690" fill="#b8c9e8" font-family="Inter, Arial" font-size="24">nutrition labels + meal tracking + personalized macro targets</text>
</svg>
